<svg width="38.000000" height="38.000000" viewBox="0 0 38 38" fill="none" xmlns="http://www.w3.org/2000/svg" xmlns:xlink="http://www.w3.org/1999/xlink">
	<desc>
			Created with Pixso.
	</desc>
	<circle id="Ellipse 9" cx="19.000000" cy="19.000000" r="19.000000" fill="#000033"/>
	<path id="Stroke 1" d="M13.5 10C16.9719 10 17 10.8748 17 13.5C17 16.1252 17.011 17 13.5 17C9.98895 17 10 16.1252 10 13.5C10 10.8748 10.0281 10 13.5 10Z" stroke="#FFFFFF" stroke-width="1.500000" stroke-linejoin="round"/>
	<path id="Stroke 3" d="M24.5 10C27.9719 10 28 10.8748 28 13.5C28 16.1252 28.011 17 24.5 17C20.989 17 21 16.1252 21 13.5C21 10.8748 21.0281 10 24.5 10Z" stroke="#FFFFFF" stroke-width="1.500000" stroke-linejoin="round"/>
	<path id="Stroke 5" d="M13.5 21C16.9719 21 17 21.8748 17 24.5C17 27.1252 17.011 28 13.5 28C9.98895 28 10 27.1252 10 24.5C10 21.8748 10.0281 21 13.5 21Z" stroke="#FFFFFF" stroke-width="1.500000" stroke-linejoin="round"/>
	<path id="Stroke 7" d="M24.5 21C27.9719 21 28 21.8748 28 24.5C28 27.1252 28.011 28 24.5 28C20.989 28 21 27.1252 21 24.5C21 21.8748 21.0281 21 24.5 21Z" stroke="#FFFFFF" stroke-width="1.500000" stroke-linejoin="round"/>
	<defs/>
</svg>
